<svg width="937" height="84" viewBox="0 0 937 84" fill="none" xmlns="http://www.w3.org/2000/svg">
<path d="M0.5 84V0H24.5V72H72.5V84H0.5ZM96.5 84V72H84.5V12H96.5V0H156.5V12H168.5V72H156.5V84H96.5ZM108.5 72H144.5V12H108.5V72ZM192.5 84V72H180.5V0H204.5V72H240.5V0H264.5V72H252.5V84H192.5ZM408.5 84V72H396.5V60H384.5V48H372.5V0H396.5V36H408.5V48H420.5V36H432.5V0H456.5V48H444.5V60H432.5V72H420.5V84H408.5ZM468.5 84V24H480.5V12H492.5V0H528.5V12H540.5V24H552.5V84H528.5V60H492.5V84H468.5ZM492.5 48H528.5V24H516.5V12H504.5V24H492.5V48ZM576.5 84V72H564.5V0H588.5V72H624.5V0H648.5V72H636.5V84H576.5ZM684.5 84V72H672.5V60H660.5V24H672.5V12H684.5V0H744.5V12H696.5V24H684.5V60H696.5V72H720.5V48H708.5V36H744.5V84H684.5ZM756.5 84V0H780.5V36H816.5V0H840.5V84H816.5V48H780.5V84H756.5ZM852.5 84V0H876.5V12H888.5V24H900.5V36H912.5V0H936.5V84H912.5V60H900.5V48H888.5V36H876.5V84H852.5Z" fill="white"/>
</svg>
